<svg width="26" height="26" viewBox="0 0 26 26" fill="none" xmlns="http://www.w3.org/2000/svg">
<path fill-rule="evenodd" clip-rule="evenodd" d="M0 6.5C0 5.63805 0.34241 4.8114 0.951903 4.2019C1.5614 3.59241 2.38805 3.25 3.25 3.25H22.75C23.612 3.25 24.4386 3.59241 25.0481 4.2019C25.6576 4.8114 26 5.63805 26 6.5V14.625H0V6.5ZM18.6875 8.125C18.472 8.125 18.2653 8.2106 18.113 8.36298C17.9606 8.51535 17.875 8.72201 17.875 8.9375V10.5625C17.875 10.778 17.9606 10.9847 18.113 11.137C18.2653 11.2894 18.472 11.375 18.6875 11.375H21.9375C22.153 11.375 22.3597 11.2894 22.512 11.137C22.6644 10.9847 22.75 10.778 22.75 10.5625V8.9375C22.75 8.72201 22.6644 8.51535 22.512 8.36298C22.3597 8.2106 22.153 8.125 21.9375 8.125H18.6875Z" fill="#080F58"/>
<path d="M0 17.875V19.5C0 20.362 0.34241 21.1886 0.951903 21.7981C1.5614 22.4076 2.38805 22.75 3.25 22.75H22.75C23.612 22.75 24.4386 22.4076 25.0481 21.7981C25.6576 21.1886 26 20.362 26 19.5V17.875H0Z" fill="#080F58"/>
</svg>
