<svg width="37" height="34" viewBox="0 0 37 34" fill="none" xmlns="http://www.w3.org/2000/svg">
<g filter="url(#filter0_d)">
<path d="M20.375 21.5625H18.5V19.6875C18.4993 18.9418 18.2027 18.2269 17.6754 17.6996C17.1481 17.1723 16.4332 16.8757 15.6875 16.875H11.9375C11.1918 16.8757 10.4769 17.1723 9.94958 17.6996C9.4223 18.2269 9.12574 18.9418 9.125 19.6875V21.5625H7.25V19.6875C7.25149 18.4448 7.74583 17.2533 8.62458 16.3746C9.50334 15.4958 10.6948 15.0015 11.9375 15H15.6875C16.9302 15.0015 18.1217 15.4958 19.0004 16.3746C19.8792 17.2533 20.3735 18.4448 20.375 19.6875V21.5625Z" fill="#EC336B"/>
<path d="M13.8125 5.625C14.3688 5.625 14.9125 5.78995 15.375 6.09899C15.8376 6.40803 16.198 6.84729 16.4109 7.3612C16.6238 7.87512 16.6795 8.44062 16.571 8.98619C16.4624 9.53176 16.1946 10.0329 15.8012 10.4262C15.4079 10.8196 14.9068 11.0874 14.3612 11.196C13.8156 11.3045 13.2501 11.2488 12.7362 11.0359C12.2223 10.823 11.783 10.4626 11.474 10C11.165 9.53753 11 8.99376 11 8.4375C11 7.69158 11.2963 6.97621 11.8238 6.44876C12.3512 5.92132 13.0666 5.625 13.8125 5.625ZM13.8125 3.75C12.8854 3.75 11.9791 4.02492 11.2083 4.53999C10.4374 5.05506 9.8366 5.78714 9.48182 6.64367C9.12703 7.5002 9.0342 8.4427 9.21507 9.35199C9.39594 10.2613 9.84238 11.0965 10.4979 11.7521C11.1535 12.4076 11.9887 12.8541 12.898 13.0349C13.8073 13.2158 14.7498 13.123 15.6063 12.7682C16.4629 12.4134 17.1949 11.8126 17.71 11.0417C18.2251 10.2709 18.5 9.3646 18.5 8.4375C18.5 7.1943 18.0061 6.00201 17.1271 5.12294C16.248 4.24386 15.0557 3.75 13.8125 3.75Z" fill="#EC336B"/>
<path d="M5.375 24.375H31.625V26.25H5.375V24.375Z" fill="#EC336B"/>
<path d="M29.0965 7.49994C28.763 7.49998 28.4329 7.56686 28.1257 7.69665C27.8184 7.82643 27.5403 8.01648 27.3078 8.25557L26.9375 8.63432L26.5672 8.25463C26.3346 8.01559 26.0565 7.82559 25.7493 7.69585C25.442 7.56611 25.1119 7.49927 24.7784 7.49927C24.4449 7.49927 24.1148 7.56611 23.8076 7.69585C23.5003 7.82559 23.2222 8.01559 22.9897 8.25463C22.5154 8.74428 22.2502 9.39921 22.2502 10.0809C22.2502 10.7625 22.5154 11.4175 22.9897 11.9071L26.9375 15.9374L30.8843 11.9081C31.3586 11.4184 31.6238 10.7635 31.6238 10.0818C31.6238 9.40015 31.3586 8.74522 30.8843 8.25557C30.652 8.01671 30.3742 7.82679 30.0673 7.69701C29.7604 7.56723 29.4307 7.50023 29.0975 7.49994H29.0965Z" fill="#EC336B"/>
</g>
<defs>
<filter id="filter0_d" x="-1.5" y="-3" width="40" height="40" filterUnits="userSpaceOnUse" color-interpolation-filters="sRGB">
<feFlood flood-opacity="0" result="BackgroundImageFix"/>
<feColorMatrix in="SourceAlpha" type="matrix" values="0 0 0 0 0 0 0 0 0 0 0 0 0 0 0 0 0 0 127 0"/>
<feOffset dy="2"/>
<feGaussianBlur stdDeviation="2.5"/>
<feColorMatrix type="matrix" values="0 0 0 0 0.92549 0 0 0 0 0.2 0 0 0 0 0.419608 0 0 0 0.75 0"/>
<feBlend mode="normal" in2="BackgroundImageFix" result="effect1_dropShadow"/>
<feBlend mode="normal" in="SourceGraphic" in2="effect1_dropShadow" result="shape"/>
</filter>
</defs>
</svg>
