<svg width="30" height="30" viewBox="0 0 30 30" fill="none" xmlns="http://www.w3.org/2000/svg">
<g filter="url(#filter0_d)">
<path d="M22.1999 8.04209H7.1999V7.44209L20.3999 6.38609V7.44209H22.1999V5.64209C22.1999 4.32209 21.1307 3.39569 19.8251 3.58169L7.7759 5.30249C6.4691 5.48969 5.3999 6.72209 5.3999 8.04209V20.0421C5.3999 20.6786 5.65276 21.2891 6.10285 21.7391C6.55293 22.1892 7.16338 22.4421 7.7999 22.4421H22.1999C22.8364 22.4421 23.4469 22.1892 23.897 21.7391C24.347 21.2891 24.5999 20.6786 24.5999 20.0421V10.4421C24.5999 9.80557 24.347 9.19512 23.897 8.74503C23.4469 8.29494 22.8364 8.04209 22.1999 8.04209ZM20.3999 16.4493C20.1634 16.4492 19.9293 16.4026 19.7109 16.312C19.4925 16.2214 19.294 16.0887 19.1269 15.9215C18.9597 15.7542 18.8272 15.5557 18.7367 15.3372C18.6463 15.1187 18.5998 14.8845 18.5999 14.6481C18.6 14.4116 18.6466 14.1775 18.7372 13.9591C18.8278 13.7406 18.9605 13.5422 19.1277 13.375C19.295 13.2079 19.4935 13.0753 19.712 12.9849C19.9305 12.8945 20.1646 12.848 20.4011 12.8481C20.8787 12.8482 21.3366 13.0381 21.6741 13.3759C22.0117 13.7137 22.2013 14.1717 22.2011 14.6493C22.2009 15.1268 22.0111 15.5848 21.6733 15.9223C21.3355 16.2599 20.8775 16.4494 20.3999 16.4493Z" fill="#EC336B"/>
</g>
<defs>
<filter id="filter0_d" x="0.399902" y="0.557922" width="29.2" height="28.8842" filterUnits="userSpaceOnUse" color-interpolation-filters="sRGB">
<feFlood flood-opacity="0" result="BackgroundImageFix"/>
<feColorMatrix in="SourceAlpha" type="matrix" values="0 0 0 0 0 0 0 0 0 0 0 0 0 0 0 0 0 0 127 0"/>
<feOffset dy="2"/>
<feGaussianBlur stdDeviation="2.5"/>
<feColorMatrix type="matrix" values="0 0 0 0 0.92549 0 0 0 0 0.2 0 0 0 0 0.419608 0 0 0 0.75 0"/>
<feBlend mode="normal" in2="BackgroundImageFix" result="effect1_dropShadow"/>
<feBlend mode="normal" in="SourceGraphic" in2="effect1_dropShadow" result="shape"/>
</filter>
</defs>
</svg>
