<svg width="35" height="36" viewBox="0 0 35 36" fill="none" xmlns="http://www.w3.org/2000/svg">
<g filter="url(#filter0_d)">
<path d="M28.2812 10.082H23.957C24.3555 9.45508 24.5898 8.71094 24.5898 7.91406C24.5898 5.68457 22.7764 3.87109 20.5469 3.87109C19.334 3.87109 18.2412 4.41016 17.5 5.25977C16.7588 4.41016 15.666 3.87109 14.4531 3.87109C12.2236 3.87109 10.4102 5.68457 10.4102 7.91406C10.4102 8.71094 10.6416 9.45508 11.043 10.082H6.71875C6.2002 10.082 5.78125 10.501 5.78125 11.0195V16.8789C5.78125 17.0078 5.88672 17.1133 6.01562 17.1133H7.1875V27.1914C7.1875 27.71 7.60645 28.1289 8.125 28.1289H26.875C27.3936 28.1289 27.8125 27.71 27.8125 27.1914V17.1133H28.9844C29.1133 17.1133 29.2188 17.0078 29.2188 16.8789V11.0195C29.2188 10.501 28.7998 10.082 28.2812 10.082ZM18.4961 7.91406C18.4961 6.7832 19.416 5.86328 20.5469 5.86328C21.6777 5.86328 22.5977 6.7832 22.5977 7.91406C22.5977 9.04492 21.6777 9.96484 20.5469 9.96484H18.4961V7.91406ZM14.4531 5.86328C15.584 5.86328 16.5039 6.7832 16.5039 7.91406V9.96484H14.4531C13.3223 9.96484 12.4023 9.04492 12.4023 7.91406C12.4023 6.7832 13.3223 5.86328 14.4531 5.86328ZM7.77344 15.1211V12.0742H16.5039V15.1211H7.77344ZM9.17969 17.1133H16.5039V26.1367H9.17969V17.1133ZM25.8203 26.1367H18.4961V17.1133H25.8203V26.1367ZM27.2266 15.1211H18.4961V12.0742H27.2266V15.1211Z" fill="#EC336B"/>
</g>
<defs>
<filter id="filter0_d" x="-2.5" y="-2" width="40" height="40" filterUnits="userSpaceOnUse" color-interpolation-filters="sRGB">
<feFlood flood-opacity="0" result="BackgroundImageFix"/>
<feColorMatrix in="SourceAlpha" type="matrix" values="0 0 0 0 0 0 0 0 0 0 0 0 0 0 0 0 0 0 127 0"/>
<feOffset dy="2"/>
<feGaussianBlur stdDeviation="2.5"/>
<feColorMatrix type="matrix" values="0 0 0 0 0.92549 0 0 0 0 0.2 0 0 0 0 0.419608 0 0 0 0.75 0"/>
<feBlend mode="normal" in2="BackgroundImageFix" result="effect1_dropShadow"/>
<feBlend mode="normal" in="SourceGraphic" in2="effect1_dropShadow" result="shape"/>
</filter>
</defs>
</svg>
