<svg width="24" height="25" viewBox="0 0 24 25" fill="none" xmlns="http://www.w3.org/2000/svg">
<path d="M11.9906 2.10077C6.19453 2.09843 1.5 6.79061 1.5 12.582C1.5 17.1617 4.43672 21.0547 8.52656 22.4844C9.07734 22.6226 8.99297 22.2312 8.99297 21.9641V20.1476C5.8125 20.5203 5.68359 18.4156 5.47031 18.0641C5.03906 17.3281 4.01953 17.1406 4.32422 16.7891C5.04844 16.4164 5.78672 16.8828 6.64219 18.1461C7.26094 19.0625 8.46797 18.9078 9.07969 18.7555C9.21328 18.2047 9.49922 17.7125 9.89297 17.3305C6.59766 16.7398 5.22422 14.7289 5.22422 12.3383C5.22422 11.1781 5.60625 10.1117 6.35625 9.25155C5.87812 7.83358 6.40078 6.61952 6.47109 6.43905C7.83281 6.31718 9.24844 7.41405 9.35859 7.50077C10.132 7.29218 11.0156 7.18202 12.0047 7.18202C12.9984 7.18202 13.8844 7.29686 14.6648 7.5078C14.9297 7.30624 16.2422 6.36405 17.5078 6.4789C17.5758 6.65936 18.0867 7.8453 17.6367 9.24452C18.3961 10.107 18.7828 11.1828 18.7828 12.3453C18.7828 14.7406 17.4 16.7539 14.0953 17.3351C14.3784 17.6135 14.6031 17.9455 14.7564 18.3117C14.9098 18.6779 14.9886 19.071 14.9883 19.468V22.1047C15.007 22.3156 14.9883 22.5242 15.3398 22.5242C19.4906 21.125 22.4789 17.2039 22.4789 12.5844C22.4789 6.79061 17.782 2.10077 11.9906 2.10077Z" fill="#080F58"/>
</svg>
