<svg width="37" height="35" viewBox="0 0 37 35" fill="none" xmlns="http://www.w3.org/2000/svg">
<g filter="url(#filter0_d)">
<path d="M6.3125 11.25C6.3125 4.6875 12.875 4.6875 18.5 4.6875C24.125 4.6875 30.6875 4.6875 30.6875 11.25C30.6875 18.75 24.125 10.3125 24.125 10.3125H12.875C12.875 10.3125 6.3125 18.75 6.3125 11.25ZM13.8125 13.125C13.8125 13.125 9.125 17.8125 9.125 26.25H27.875C27.875 17.8125 23.1875 13.125 23.1875 13.125H13.8125Z" stroke="#EC336B" stroke-width="1.875" stroke-linecap="round" stroke-linejoin="round"/>
<path d="M18.5 23.4375C20.5711 23.4375 22.25 21.7586 22.25 19.6875C22.25 17.6164 20.5711 15.9375 18.5 15.9375C16.4289 15.9375 14.75 17.6164 14.75 19.6875C14.75 21.7586 16.4289 23.4375 18.5 23.4375Z" stroke="#EC336B" stroke-width="1.875" stroke-linecap="round" stroke-linejoin="round"/>
</g>
<defs>
<filter id="filter0_d" x="-1.5" y="-3" width="40" height="40" filterUnits="userSpaceOnUse" color-interpolation-filters="sRGB">
<feFlood flood-opacity="0" result="BackgroundImageFix"/>
<feColorMatrix in="SourceAlpha" type="matrix" values="0 0 0 0 0 0 0 0 0 0 0 0 0 0 0 0 0 0 127 0"/>
<feOffset dy="2"/>
<feGaussianBlur stdDeviation="2.5"/>
<feColorMatrix type="matrix" values="0 0 0 0 0.92549 0 0 0 0 0.2 0 0 0 0 0.419608 0 0 0 0.75 0"/>
<feBlend mode="normal" in2="BackgroundImageFix" result="effect1_dropShadow"/>
<feBlend mode="normal" in="SourceGraphic" in2="effect1_dropShadow" result="shape"/>
</filter>
</defs>
</svg>
