<svg width="24" height="25" viewBox="0 0 24 25" fill="none" xmlns="http://www.w3.org/2000/svg">
<path d="M4.70544 0.318497C2.12023 0.318497 0.00439453 2.43429 0.00439453 5.01954V19.6077C0.00439453 22.1929 2.12019 24.308 4.70544 24.308H19.2936C21.8789 24.308 23.9939 22.193 23.9939 19.6077V5.01954C23.9939 2.43434 21.8789 0.318497 19.2936 0.318497H4.70544ZM5.88783 4.27725C7.12738 4.27725 7.89089 5.09099 7.91446 6.16065C7.91446 7.20669 7.12733 8.0433 5.86385 8.0433H5.84059C4.62463 8.0433 3.83871 7.20674 3.83871 6.16065C3.83871 5.09102 4.64842 4.27725 5.8878 4.27725H5.88783ZM16.5697 9.27669C18.9536 9.27669 20.7407 10.8348 20.7407 14.1832V20.4339H17.1178V14.6022C17.1178 13.1368 16.5935 12.137 15.2824 12.137C14.2815 12.137 13.6849 12.8109 13.423 13.4619C13.3273 13.6948 13.3038 14.02 13.3038 14.3458V20.4339H9.68091C9.68091 20.4339 9.72845 10.5552 9.68091 9.53234H13.3045V11.0761C13.786 10.3333 14.6471 9.27666 16.5697 9.27666V9.27669ZM4.0524 9.53313H7.67527V20.434H4.0524V9.53313Z" fill="#080F58"/>
</svg>
