<svg width="26" height="26" viewBox="0 0 26 26" fill="none" xmlns="http://www.w3.org/2000/svg">
<path d="M5.40907 14.0659C5.17374 14.0657 4.94474 14.1421 4.75668 14.2836C4.56863 14.425 4.43177 14.6239 4.36678 14.8501C4.30179 15.0762 4.31221 15.3174 4.39648 15.5372C4.48074 15.7569 4.63426 15.9432 4.83382 16.0679L7.74582 18.9799C7.84647 19.0805 7.96595 19.1603 8.09743 19.2147C8.22891 19.2691 8.36982 19.2971 8.51212 19.297C8.65441 19.297 8.7953 19.2689 8.92675 19.2144C9.05819 19.1599 9.17761 19.08 9.27819 18.9794C9.37877 18.8787 9.45855 18.7592 9.51295 18.6278C9.56736 18.4963 9.59534 18.3554 9.59529 18.2131C9.59524 18.0708 9.56716 17.9299 9.51266 17.7984C9.45816 17.667 9.3783 17.5476 9.27765 17.447L8.06323 16.2337H16.2424C16.5297 16.2337 16.8053 16.1195 17.0084 15.9164C17.2116 15.7132 17.3257 15.4377 17.3257 15.1503C17.3257 14.863 17.2116 14.5875 17.0084 14.3843C16.8053 14.1811 16.5297 14.067 16.2424 14.067H5.40907V14.0659Z" fill="#080F58"/>
<path d="M20.5909 11.934C20.8262 11.9342 21.0552 11.8578 21.2433 11.7163C21.4313 11.5749 21.5682 11.376 21.6332 11.1498C21.6982 10.9236 21.6877 10.6825 21.6035 10.4627C21.5192 10.243 21.3657 10.0567 21.1661 9.93198L18.2541 7.01998C18.0509 6.81684 17.7752 6.70278 17.4878 6.70288C17.2005 6.70298 16.9249 6.81724 16.7218 7.02052C16.5186 7.22379 16.4046 7.49944 16.4047 7.78682C16.4048 8.07419 16.519 8.34976 16.7223 8.55289L17.9367 9.76623H9.75756C9.47024 9.76623 9.19469 9.88036 8.99153 10.0835C8.78836 10.2867 8.67422 10.5622 8.67422 10.8496C8.67422 11.1369 8.78836 11.4124 8.99153 11.6156C9.19469 11.8188 9.47024 11.9329 9.75756 11.9329H20.5909V11.934Z" fill="#080F58"/>
</svg>
