<svg width="33" height="30" viewBox="0 0 33 30" fill="none" xmlns="http://www.w3.org/2000/svg">
<g filter="url(#filter0_d)">
<path d="M10.25 15C10.2499 15.3284 10.1852 15.6536 10.0594 15.9569C9.9337 16.2603 9.74943 16.5359 9.51717 16.7681C9.28491 17.0002 9.0092 17.1843 8.70577 17.3099C8.40235 17.4355 8.07717 17.5001 7.74878 17.5C7.42039 17.4999 7.09524 17.4352 6.79188 17.3094C6.48852 17.1837 6.2129 16.9994 5.98075 16.7672C5.74861 16.5349 5.56448 16.2592 5.43889 15.9558C5.3133 15.6524 5.2487 15.3272 5.24878 14.9988C5.24895 14.3356 5.51256 13.6996 5.98164 13.2308C6.45071 12.7619 7.08682 12.4986 7.75003 12.4988C8.41324 12.4989 9.04921 12.7626 9.51805 13.2316C9.9869 13.7007 10.2502 14.3368 10.25 15ZM25.25 12.5C24.9216 12.5001 24.5965 12.5649 24.2931 12.6906C23.9898 12.8164 23.7141 13.0006 23.482 13.2329C23.2499 13.4652 23.0657 13.7409 22.9401 14.0443C22.8145 14.3477 22.7499 14.6729 22.75 15.0013C22.7501 15.3297 22.8149 15.6548 22.9406 15.9582C23.0664 16.2615 23.2506 16.5372 23.4829 16.7693C23.7152 17.0015 23.9909 17.1856 24.2943 17.3112C24.5977 17.4368 24.9229 17.5014 25.2513 17.5013C25.9145 17.5011 26.5505 17.2375 27.0193 16.7684C27.4881 16.2993 27.7514 15.6632 27.7513 15C27.7511 14.3368 27.4875 13.7008 27.0184 13.232C26.5493 12.7632 25.9132 12.4999 25.25 12.5ZM16.5 12.5C16.1716 12.5001 15.8465 12.5649 15.5431 12.6906C15.2398 12.8164 14.9641 13.0006 14.732 13.2329C14.4999 13.4652 14.3157 13.7409 14.1901 14.0443C14.0645 14.3477 13.9999 14.6729 14 15.0013C14.0001 15.3297 14.0649 15.6548 14.1906 15.9582C14.3164 16.2615 14.5006 16.5372 14.7329 16.7693C14.9651 17.0015 15.2409 17.1856 15.5443 17.3112C15.8477 17.4368 16.1729 17.5014 16.5013 17.5013C17.1645 17.5011 17.8005 17.2375 18.2693 16.7684C18.7381 16.2993 19.0014 15.6632 19.0013 15C19.0011 14.3368 18.7375 13.7008 18.2684 13.232C17.7993 12.7632 17.1632 12.4999 16.5 12.5Z" fill="#EC336B"/>
</g>
<defs>
<filter id="filter0_d" x="-3.5" y="-3" width="40" height="40" filterUnits="userSpaceOnUse" color-interpolation-filters="sRGB">
<feFlood flood-opacity="0" result="BackgroundImageFix"/>
<feColorMatrix in="SourceAlpha" type="matrix" values="0 0 0 0 0 0 0 0 0 0 0 0 0 0 0 0 0 0 127 0"/>
<feOffset dy="2"/>
<feGaussianBlur stdDeviation="2.5"/>
<feColorMatrix type="matrix" values="0 0 0 0 0.92549 0 0 0 0 0.2 0 0 0 0 0.419608 0 0 0 0.75 0"/>
<feBlend mode="normal" in2="BackgroundImageFix" result="effect1_dropShadow"/>
<feBlend mode="normal" in="SourceGraphic" in2="effect1_dropShadow" result="shape"/>
</filter>
</defs>
</svg>
