<svg width="39" height="36" viewBox="0 0 39 36" fill="none" xmlns="http://www.w3.org/2000/svg">
<g filter="url(#filter0_d)">
<path d="M22.6437 7.24999L25.9012 3.99124C26.0173 3.87502 26.1552 3.78282 26.3069 3.71992C26.4587 3.65701 26.6213 3.62463 26.7856 3.62463C26.9499 3.62463 27.1125 3.65701 27.2643 3.71992C27.416 3.78282 27.5539 3.87502 27.67 3.99124L32.9725 9.29499C33.2068 9.5294 33.3385 9.84729 33.3385 10.1787C33.3385 10.5102 33.2068 10.8281 32.9725 11.0625L28.25 15.785V27.25C28.25 27.5815 28.1183 27.8995 27.8839 28.1339C27.6494 28.3683 27.3315 28.5 27 28.5H12C11.6685 28.5 11.3505 28.3683 11.1161 28.1339C10.8817 27.8995 10.75 27.5815 10.75 27.25V15.785L6.02748 11.0625C5.79314 10.8281 5.6615 10.5102 5.6615 10.1787C5.6615 9.84729 5.79314 9.5294 6.02748 9.29499L11.33 3.99124C11.4461 3.87502 11.5839 3.78282 11.7357 3.71992C11.8874 3.65701 12.0501 3.62463 12.2144 3.62463C12.3786 3.62463 12.5413 3.65701 12.693 3.71992C12.8448 3.78282 12.9826 3.87502 13.0987 3.99124L16.3562 7.24999H22.6437ZM23.6787 9.74999H15.3212L12.215 6.64374L8.67873 10.1787L13.25 14.75V26H25.75V14.75L30.3212 10.1787L26.785 6.64374L23.6787 9.74999Z" fill="#EC336B"/>
</g>
<defs>
<filter id="filter0_d" x="-0.5" y="-2" width="40" height="40" filterUnits="userSpaceOnUse" color-interpolation-filters="sRGB">
<feFlood flood-opacity="0" result="BackgroundImageFix"/>
<feColorMatrix in="SourceAlpha" type="matrix" values="0 0 0 0 0 0 0 0 0 0 0 0 0 0 0 0 0 0 127 0"/>
<feOffset dy="2"/>
<feGaussianBlur stdDeviation="2.5"/>
<feColorMatrix type="matrix" values="0 0 0 0 0.92549 0 0 0 0 0.2 0 0 0 0 0.419608 0 0 0 0.75 0"/>
<feBlend mode="normal" in2="BackgroundImageFix" result="effect1_dropShadow"/>
<feBlend mode="normal" in="SourceGraphic" in2="effect1_dropShadow" result="shape"/>
</filter>
</defs>
</svg>
