<svg width="33" height="34" viewBox="0 0 33 34" fill="none" xmlns="http://www.w3.org/2000/svg">
<g filter="url(#filter0_d)">
<path d="M23.0625 13.125C23.0625 13.3736 22.9637 13.6121 22.7879 13.7879C22.6121 13.9637 22.3736 14.0625 22.125 14.0625H14.625C14.3764 14.0625 14.1379 13.9637 13.9621 13.7879C13.7863 13.6121 13.6875 13.3736 13.6875 13.125C13.6875 12.8764 13.7863 12.6379 13.9621 12.4621C14.1379 12.2863 14.3764 12.1875 14.625 12.1875H22.125C22.3736 12.1875 22.6121 12.2863 22.7879 12.4621C22.9637 12.6379 23.0625 12.8764 23.0625 13.125ZM22.125 15.9375H14.625C14.3764 15.9375 14.1379 16.0363 13.9621 16.2121C13.7863 16.3879 13.6875 16.6264 13.6875 16.875C13.6875 17.1236 13.7863 17.3621 13.9621 17.5379C14.1379 17.7137 14.3764 17.8125 14.625 17.8125H22.125C22.3736 17.8125 22.6121 17.7137 22.7879 17.5379C22.9637 17.3621 23.0625 17.1236 23.0625 16.875C23.0625 16.6264 22.9637 16.3879 22.7879 16.2121C22.6121 16.0363 22.3736 15.9375 22.125 15.9375ZM27.75 5.625V24.375C27.7494 24.8721 27.5517 25.3487 27.2002 25.7002C26.8487 26.0517 26.3721 26.2494 25.875 26.25H7.125C6.62789 26.2494 6.1513 26.0517 5.79979 25.7002C5.44828 25.3487 5.25056 24.8721 5.25 24.375V5.625C5.25056 5.12789 5.44828 4.6513 5.79979 4.29979C6.1513 3.94828 6.62789 3.75056 7.125 3.75H25.875C26.3721 3.75056 26.8487 3.94828 27.2002 4.29979C27.5517 4.6513 27.7494 5.12789 27.75 5.625ZM7.125 24.375H9.9375V5.625H7.125V24.375ZM25.8762 24.375L25.875 5.625H11.8125V24.375H25.875H25.8762Z" fill="#EC336B"/>
</g>
<defs>
<filter id="filter0_d" x="-3.5" y="-3" width="40" height="40" filterUnits="userSpaceOnUse" color-interpolation-filters="sRGB">
<feFlood flood-opacity="0" result="BackgroundImageFix"/>
<feColorMatrix in="SourceAlpha" type="matrix" values="0 0 0 0 0 0 0 0 0 0 0 0 0 0 0 0 0 0 127 0"/>
<feOffset dy="2"/>
<feGaussianBlur stdDeviation="2.5"/>
<feColorMatrix type="matrix" values="0 0 0 0 0.92549 0 0 0 0 0.2 0 0 0 0 0.419608 0 0 0 0.75 0"/>
<feBlend mode="normal" in2="BackgroundImageFix" result="effect1_dropShadow"/>
<feBlend mode="normal" in="SourceGraphic" in2="effect1_dropShadow" result="shape"/>
</filter>
</defs>
</svg>
