<svg width="35" height="34" viewBox="0 0 35 34" fill="none" xmlns="http://www.w3.org/2000/svg">
<g filter="url(#filter0_d)">
<path d="M19.375 3.75V12.1875H11.5816C11.2833 11.4885 10.8998 10.8292 10.4397 10.2244C9.45063 8.91 7.75469 7.5 5.3125 7.5V9.375C7.05156 9.375 8.16906 10.3087 8.94531 11.3381C9.68594 12.3197 9.97094 13.2422 10 13.3303C10.0769 16.5084 11.9519 19.2553 14.6294 20.625C13.8948 20.644 13.1965 20.9482 12.6824 21.4732C12.1682 21.9982 11.8787 22.7027 11.875 23.4375C11.875 24.9797 13.1453 26.25 14.6875 26.25C16.2297 26.25 17.5 24.9797 17.5 23.4375C17.5 22.6059 17.1409 21.8438 16.5625 21.3281C17.1766 21.477 17.8056 21.5556 18.4375 21.5625H21.25C21.8819 21.5556 22.5109 21.477 23.125 21.3281C22.5466 21.8438 22.1875 22.6059 22.1875 23.4375C22.1875 24.9797 23.4578 26.25 25 26.25C26.5422 26.25 27.8125 24.9797 27.8125 23.4375C27.8088 22.7027 27.5193 21.9982 27.0051 21.4732C26.491 20.9482 25.7927 20.644 25.0581 20.625C27.5266 19.3612 29.3031 16.9266 29.6284 14.0625C29.6584 13.7906 29.6847 13.5206 29.6875 13.2422V13.1831C29.6875 13.1831 29.695 13.0294 29.6875 12.7734V12.1875H29.6284C29.5591 11.2903 29.3725 9.93188 28.6909 8.49563C27.5753 6.14625 25.0441 3.75 20.3125 3.75H19.375ZM21.25 5.74219C24.6372 6.02062 26.2122 7.61344 27.0213 9.31687C27.5744 10.485 27.6991 11.4656 27.7544 12.1875H21.25V5.74219ZM12.0803 14.0625H27.6063C27.13 17.2153 24.5303 19.6875 21.2491 19.6875H18.4366C15.1553 19.6875 12.5556 17.2153 12.0794 14.0625H12.0803ZM14.6875 22.5C15.2153 22.5 15.625 22.9106 15.625 23.4375C15.625 23.9653 15.2144 24.375 14.6875 24.375C14.1597 24.375 13.75 23.9644 13.75 23.4375C13.75 22.9097 14.1606 22.5 14.6875 22.5ZM25 22.5C25.5278 22.5 25.9375 22.9106 25.9375 23.4375C25.9375 23.9653 25.5269 24.375 25 24.375C24.4722 24.375 24.0625 23.9644 24.0625 23.4375C24.0625 22.9097 24.4731 22.5 25 22.5Z" fill="#EC336B"/>
</g>
<defs>
<filter id="filter0_d" x="-2.5" y="-3" width="40" height="40" filterUnits="userSpaceOnUse" color-interpolation-filters="sRGB">
<feFlood flood-opacity="0" result="BackgroundImageFix"/>
<feColorMatrix in="SourceAlpha" type="matrix" values="0 0 0 0 0 0 0 0 0 0 0 0 0 0 0 0 0 0 127 0"/>
<feOffset dy="2"/>
<feGaussianBlur stdDeviation="2.5"/>
<feColorMatrix type="matrix" values="0 0 0 0 0.92549 0 0 0 0 0.2 0 0 0 0 0.419608 0 0 0 0.75 0"/>
<feBlend mode="normal" in2="BackgroundImageFix" result="effect1_dropShadow"/>
<feBlend mode="normal" in="SourceGraphic" in2="effect1_dropShadow" result="shape"/>
</filter>
</defs>
</svg>
