<svg width="36" height="36" viewBox="0 0 36 36" fill="none" xmlns="http://www.w3.org/2000/svg">
<g filter="url(#filter0_d)">
<path d="M26 3.5C26.2159 3.50008 26.4252 3.5747 26.5925 3.71125L26.6875 3.79875L30.7775 8.21125L30.815 8.25875C30.9425 8.42875 31 8.62125 31 8.80875V11.21C31 12.4525 30.5262 13.585 29.75 14.435V27.5625C29.7499 27.7892 29.6677 28.0083 29.5185 28.179C29.3694 28.3498 29.1634 28.4607 28.9387 28.4912L28.8125 28.5H8.18748C7.96093 28.5 7.74205 28.4179 7.57132 28.269C7.40058 28.1201 7.28954 27.9144 7.25873 27.69L7.24998 27.5625V14.435C6.51086 13.6261 6.07258 12.5876 6.00873 11.4938L5.99998 11.2087V8.8625C5.98912 8.68441 6.03085 8.50706 6.11998 8.3525L6.20123 8.23375L6.25123 8.17625L10.3125 3.8C10.4595 3.64136 10.657 3.53846 10.8712 3.50875L11 3.5H26ZM22.3525 14.0525L22.3375 14.075C21.8919 14.6728 21.3128 15.1582 20.6462 15.4925C19.9797 15.8267 19.2443 16.0005 18.4987 16C17.7489 16.0005 17.0094 15.8248 16.34 15.4869C15.6706 15.149 15.09 14.6586 14.645 14.055C14.2003 14.6585 13.6199 15.149 12.9507 15.4869C12.2814 15.8248 11.5422 16.0005 10.7925 16C10.205 16 9.64373 15.895 9.12498 15.7025V26.625H11V18.19C11 17.9635 11.082 17.7446 11.2309 17.5738C11.3798 17.4031 11.5855 17.2921 11.81 17.2612L11.9375 17.25H17.5575C17.784 17.25 18.0029 17.3321 18.1736 17.481C18.3444 17.6299 18.4554 17.8356 18.4862 18.06L18.495 18.1875V26.6225H27.8725V15.7013C26.8981 16.0633 25.8322 16.0981 24.8362 15.8004C23.8403 15.5027 22.9684 14.8887 22.3525 14.0513V14.0525ZM16.6187 19.1263H12.875V26.6238H16.6187V19.1263ZM25.0687 17.2513C25.2953 17.2513 25.5142 17.3333 25.6849 17.4822C25.8556 17.6311 25.9667 17.8368 25.9975 18.0613L26.0062 18.1888V22.5662C26.0062 22.793 25.924 23.012 25.7748 23.1828C25.6256 23.3535 25.4196 23.4645 25.195 23.495L25.0687 23.5037H20.6912C20.4647 23.5037 20.2458 23.4217 20.0751 23.2728C19.9043 23.1239 19.7933 22.9182 19.7625 22.6937L19.7537 22.5662V18.1888C19.7537 17.9622 19.8358 17.7433 19.9847 17.5726C20.1336 17.4019 20.3393 17.2908 20.5637 17.26L20.6912 17.2513H25.0687ZM24.13 19.1263H21.6287V21.6287H24.1287V19.1263H24.13ZM13.7075 9.7525H7.87498V11.2087L7.88248 11.4212L7.91873 11.7113L7.95873 11.9062L8.02123 12.1213L8.08873 12.3062L8.13873 12.4237C8.17873 12.5087 8.22123 12.5912 8.26873 12.6712L8.39623 12.8737L8.46498 12.9662L8.62623 13.1613L8.80248 13.3413L8.92373 13.4475L8.97623 13.49C9.36873 13.8025 9.84498 14.0175 10.365 14.0938L10.59 14.1175L10.79 14.1237C12.3337 14.1237 13.5975 12.925 13.7 11.4075L13.7062 11.2075V9.75375L13.7075 9.7525ZM21.4137 9.7525H15.5825V11.2087C15.5825 12.6838 16.68 13.905 18.1025 14.0975L18.2987 14.1175L18.4987 14.1237C20.0412 14.1237 21.305 12.925 21.4075 11.4075L21.4137 11.2075V9.75375V9.7525ZM29.1225 9.7525H23.2912V11.2087C23.2912 12.6838 24.3887 13.905 25.8125 14.0975L26.0075 14.1175L26.2075 14.1237C26.9125 14.1237 27.56 13.8737 28.0637 13.4563L28.1762 13.3588L28.3212 13.2175L28.5037 13.005C28.5712 12.9187 28.635 12.83 28.6912 12.735L28.8212 12.5025L28.9 12.33L28.9725 12.1363L29.01 12.0162L29.0575 11.8263L29.0937 11.63L29.1162 11.4212L29.1237 11.2087L29.1225 9.7525ZM14.8275 5.37375H11.4087L9.08623 7.8775H14.0575L14.8275 5.37375ZM20.21 5.37375H16.7875L16.0175 7.8775H20.98L20.21 5.37375ZM25.59 5.37375H22.1712L22.9425 7.8775H27.9125L25.59 5.37375Z" fill="#EC336B"/>
</g>
<defs>
<filter id="filter0_d" x="-1.5" y="-2" width="40" height="40" filterUnits="userSpaceOnUse" color-interpolation-filters="sRGB">
<feFlood flood-opacity="0" result="BackgroundImageFix"/>
<feColorMatrix in="SourceAlpha" type="matrix" values="0 0 0 0 0 0 0 0 0 0 0 0 0 0 0 0 0 0 127 0"/>
<feOffset dy="2"/>
<feGaussianBlur stdDeviation="2.5"/>
<feColorMatrix type="matrix" values="0 0 0 0 0.92549 0 0 0 0 0.2 0 0 0 0 0.419608 0 0 0 0.75 0"/>
<feBlend mode="normal" in2="BackgroundImageFix" result="effect1_dropShadow"/>
<feBlend mode="normal" in="SourceGraphic" in2="effect1_dropShadow" result="shape"/>
</filter>
</defs>
</svg>
