<svg width="31" height="34" viewBox="0 0 31 34" fill="none" xmlns="http://www.w3.org/2000/svg">
<g filter="url(#filter0_d)">
<path d="M23 3.75C23.3062 3.75004 23.6017 3.86245 23.8305 4.06589C24.0593 4.26934 24.2054 4.54969 24.2412 4.85375L24.25 5V25C24.2496 25.3186 24.1277 25.625 23.9089 25.8567C23.6902 26.0884 23.3913 26.2278 23.0733 26.2465C22.7552 26.2651 22.442 26.1617 22.1977 25.9572C21.9534 25.7527 21.7964 25.4626 21.7587 25.1462L21.75 25V18.75H20.5C20.1938 18.75 19.8983 18.6376 19.6695 18.4341C19.4407 18.2307 19.2946 17.9503 19.2587 17.6462L19.25 17.5V10C19.25 7.2375 21.125 3.75 23 3.75ZM15.5 3.75C15.8062 3.75004 16.1017 3.86245 16.3305 4.06589C16.5593 4.26934 16.7054 4.54969 16.7413 4.85375L16.75 5V11.25C16.7499 12.3586 16.3815 13.4357 15.7027 14.3122C15.024 15.1887 14.0733 15.8149 13 16.0925V25C12.9996 25.3186 12.8777 25.625 12.6589 25.8567C12.4402 26.0884 12.1413 26.2278 11.8233 26.2465C11.5052 26.2651 11.192 26.1617 10.9477 25.9572C10.7034 25.7527 10.5464 25.4626 10.5087 25.1462L10.5 25V16.0925C9.46932 15.826 8.55051 15.2377 7.87721 14.4131C7.2039 13.5885 6.81121 12.5706 6.75625 11.5075L6.75 11.25V5C6.75035 4.6814 6.87235 4.37496 7.09106 4.14329C7.30977 3.91162 7.60869 3.77221 7.92674 3.75353C8.2448 3.73486 8.55797 3.83834 8.80229 4.04283C9.04661 4.24732 9.20362 4.53738 9.24125 4.85375L9.25 5V11.25C9.25001 11.6888 9.36553 12.1199 9.58495 12.5C9.80437 12.88 10.12 13.1956 10.5 13.415V5C10.5004 4.6814 10.6223 4.37496 10.8411 4.14329C11.0598 3.91162 11.3587 3.77221 11.6767 3.75353C11.9948 3.73486 12.308 3.83834 12.5523 4.04283C12.7966 4.24732 12.9536 4.53738 12.9913 4.85375L13 5L13.0013 13.415C13.3501 13.2134 13.645 12.9304 13.8609 12.5902C14.0768 12.25 14.2073 11.8627 14.2413 11.4612L14.25 11.25V5C14.25 4.66848 14.3817 4.35054 14.6161 4.11612C14.8505 3.8817 15.1685 3.75 15.5 3.75Z" fill="#EC336B"/>
</g>
<defs>
<filter id="filter0_d" x="-4.5" y="-3" width="40" height="40" filterUnits="userSpaceOnUse" color-interpolation-filters="sRGB">
<feFlood flood-opacity="0" result="BackgroundImageFix"/>
<feColorMatrix in="SourceAlpha" type="matrix" values="0 0 0 0 0 0 0 0 0 0 0 0 0 0 0 0 0 0 127 0"/>
<feOffset dy="2"/>
<feGaussianBlur stdDeviation="2.5"/>
<feColorMatrix type="matrix" values="0 0 0 0 0.92549 0 0 0 0 0.2 0 0 0 0 0.419608 0 0 0 0.75 0"/>
<feBlend mode="normal" in2="BackgroundImageFix" result="effect1_dropShadow"/>
<feBlend mode="normal" in="SourceGraphic" in2="effect1_dropShadow" result="shape"/>
</filter>
</defs>
</svg>
