<svg width="32" height="33" viewBox="0 0 32 33" fill="none" xmlns="http://www.w3.org/2000/svg">
<path d="M31.5312 29.8789L21.3867 19.7344C22.9609 17.6992 23.8125 15.2109 23.8125 12.5938C23.8125 9.46094 22.5898 6.52344 20.3789 4.30859C18.168 2.09375 15.2227 0.875 12.0938 0.875C8.96484 0.875 6.01953 2.09766 3.80859 4.30859C1.59375 6.51953 0.375 9.46094 0.375 12.5938C0.375 15.7227 1.59766 18.668 3.80859 20.8789C6.01953 23.0938 8.96094 24.3125 12.0938 24.3125C14.7109 24.3125 17.1953 23.4609 19.2305 21.8906L29.375 32.0312C29.4047 32.061 29.4401 32.0846 29.4789 32.1007C29.5178 32.1168 29.5595 32.1251 29.6016 32.1251C29.6436 32.1251 29.6853 32.1168 29.7242 32.1007C29.7631 32.0846 29.7984 32.061 29.8281 32.0312L31.5312 30.332C31.561 30.3023 31.5846 30.267 31.6007 30.2281C31.6168 30.1892 31.6251 30.1475 31.6251 30.1055C31.6251 30.0634 31.6168 30.0217 31.6007 29.9828C31.5846 29.944 31.561 29.9087 31.5312 29.8789ZM18.2812 18.7812C16.625 20.4336 14.4297 21.3438 12.0938 21.3438C9.75781 21.3438 7.5625 20.4336 5.90625 18.7812C4.25391 17.125 3.34375 14.9297 3.34375 12.5938C3.34375 10.2578 4.25391 8.05859 5.90625 6.40625C7.5625 4.75391 9.75781 3.84375 12.0938 3.84375C14.4297 3.84375 16.6289 4.75 18.2812 6.40625C19.9336 8.0625 20.8438 10.2578 20.8438 12.5938C20.8438 14.9297 19.9336 17.1289 18.2812 18.7812Z" fill="white"/>
</svg>
