<svg width="30" height="31" viewBox="0 0 30 31" fill="none" xmlns="http://www.w3.org/2000/svg">
<g filter="url(#filter0_d)">
<path d="M19.36 15.5C19.44 14.84 19.5 14.18 19.5 13.5C19.5 12.82 19.44 12.16 19.36 11.5H22.74C22.9 12.14 23 12.81 23 13.5C23 14.19 22.9 14.86 22.74 15.5H19.36ZM17.59 21.06C18.19 19.95 18.65 18.75 18.97 17.5H21.92C20.9512 19.1683 19.4141 20.432 17.59 21.06ZM17.34 15.5H12.66C12.56 14.84 12.5 14.18 12.5 13.5C12.5 12.82 12.56 12.15 12.66 11.5H17.34C17.43 12.15 17.5 12.82 17.5 13.5C17.5 14.18 17.43 14.84 17.34 15.5ZM15 21.46C14.17 20.26 13.5 18.93 13.09 17.5H16.91C16.5 18.93 15.83 20.26 15 21.46ZM11 9.5H8.08C9.03886 7.82721 10.5748 6.56149 12.4 5.94C11.8 7.05 11.35 8.25 11 9.5ZM8.08 17.5H11C11.35 18.75 11.8 19.95 12.4 21.06C10.5786 20.4317 9.04485 19.1677 8.08 17.5ZM7.26 15.5C7.1 14.86 7 14.19 7 13.5C7 12.81 7.1 12.14 7.26 11.5H10.64C10.56 12.16 10.5 12.82 10.5 13.5C10.5 14.18 10.56 14.84 10.64 15.5H7.26ZM15 5.53C15.83 6.73 16.5 8.07 16.91 9.5H13.09C13.5 8.07 14.17 6.73 15 5.53ZM21.92 9.5H18.97C18.657 8.26146 18.1936 7.0659 17.59 5.94C19.43 6.57 20.96 7.84 21.92 9.5ZM15 3.5C9.47 3.5 5 8 5 13.5C5 16.1522 6.05357 18.6957 7.92893 20.5711C8.85752 21.4997 9.95991 22.2362 11.1732 22.7388C12.3864 23.2413 13.6868 23.5 15 23.5C17.6522 23.5 20.1957 22.4464 22.0711 20.5711C23.9464 18.6957 25 16.1522 25 13.5C25 12.1868 24.7413 10.8864 24.2388 9.67317C23.7362 8.45991 22.9997 7.35752 22.0711 6.42893C21.1425 5.50035 20.0401 4.76375 18.8268 4.2612C17.6136 3.75866 16.3132 3.5 15 3.5Z" fill="#EC336B"/>
</g>
<defs>
<filter id="filter0_d" x="-2" y="-1.5" width="34" height="34" filterUnits="userSpaceOnUse" color-interpolation-filters="sRGB">
<feFlood flood-opacity="0" result="BackgroundImageFix"/>
<feColorMatrix in="SourceAlpha" type="matrix" values="0 0 0 0 0 0 0 0 0 0 0 0 0 0 0 0 0 0 127 0"/>
<feOffset dy="2"/>
<feGaussianBlur stdDeviation="2.5"/>
<feColorMatrix type="matrix" values="0 0 0 0 0.92549 0 0 0 0 0.2 0 0 0 0 0.419608 0 0 0 0.75 0"/>
<feBlend mode="normal" in2="BackgroundImageFix" result="effect1_dropShadow"/>
<feBlend mode="normal" in="SourceGraphic" in2="effect1_dropShadow" result="shape"/>
</filter>
</defs>
</svg>
