<svg width="37" height="33" viewBox="0 0 37 33" fill="none" xmlns="http://www.w3.org/2000/svg">
<g filter="url(#filter0_d)">
<path d="M31.5957 12.1113L30.9014 10.8984C30.8701 10.845 30.819 10.806 30.7592 10.7901C30.6994 10.7742 30.6357 10.7826 30.582 10.8135L29.0967 11.6807L26.8027 5.34668C26.6816 4.96873 26.4435 4.63906 26.1228 4.40525C25.8021 4.17144 25.4154 4.0456 25.0185 4.0459H12.3242C11.3076 4.0459 10.4053 4.70215 10.0918 5.67188L7.90624 11.6836L6.41796 10.8164C6.3643 10.7855 6.3006 10.7771 6.24077 10.793C6.18094 10.809 6.12984 10.8479 6.09862 10.9014L5.40429 12.1113C5.33983 12.2227 5.37792 12.3633 5.48925 12.4277L7.25878 13.459L6.83397 14.6309C6.79882 14.7246 6.78124 14.8242 6.78124 14.9238V25.125C6.78124 25.585 7.12694 25.957 7.55175 25.957H9.53222C9.89257 25.957 10.206 25.6846 10.2822 25.3037L10.5078 24.1992H26.4922L26.7178 25.3037C26.7969 25.6846 27.1074 25.957 27.4678 25.957H29.4482C29.873 25.957 30.2187 25.585 30.2187 25.125V14.9238C30.2187 14.8242 30.2012 14.7246 30.166 14.6309L29.7412 13.459L31.5078 12.4277C31.561 12.397 31.6 12.3467 31.6164 12.2875C31.6329 12.2283 31.6254 12.1651 31.5957 12.1113ZM11.2344 18.1934C10.5869 18.1934 10.0625 17.6689 10.0625 17.0215C10.0625 16.374 10.5869 15.8496 11.2344 15.8496C11.8818 15.8496 12.4062 16.374 12.4062 17.0215C12.4062 17.6689 11.8818 18.1934 11.2344 18.1934ZM22.6016 20.3906C22.6016 20.5195 22.4961 20.625 22.3672 20.625H14.6328C14.5039 20.625 14.3984 20.5195 14.3984 20.3906V17.9297C14.3984 17.8008 14.5039 17.6953 14.6328 17.6953H15.8047C15.9336 17.6953 16.0391 17.8008 16.0391 17.9297V18.9844H20.9609V17.9297C20.9609 17.8008 21.0664 17.6953 21.1953 17.6953H22.3672C22.4961 17.6953 22.6016 17.8008 22.6016 17.9297V20.3906ZM25.7656 18.1934C25.1182 18.1934 24.5937 17.6689 24.5937 17.0215C24.5937 16.374 25.1182 15.8496 25.7656 15.8496C26.4131 15.8496 26.9375 16.374 26.9375 17.0215C26.9375 17.6689 26.4131 18.1934 25.7656 18.1934ZM9.9453 12.2461L12.0752 6.38965L12.0898 6.35156L12.1016 6.31348C12.1338 6.2168 12.2217 6.15234 12.3242 6.15234H24.8516L27.0605 12.2461H9.9453Z" fill="#EC336B"/>
</g>
<defs>
<filter id="filter0_d" x="-1.5" y="-3" width="40" height="40" filterUnits="userSpaceOnUse" color-interpolation-filters="sRGB">
<feFlood flood-opacity="0" result="BackgroundImageFix"/>
<feColorMatrix in="SourceAlpha" type="matrix" values="0 0 0 0 0 0 0 0 0 0 0 0 0 0 0 0 0 0 127 0"/>
<feOffset dy="2"/>
<feGaussianBlur stdDeviation="2.5"/>
<feColorMatrix type="matrix" values="0 0 0 0 0.92549 0 0 0 0 0.2 0 0 0 0 0.419608 0 0 0 0.75 0"/>
<feBlend mode="normal" in2="BackgroundImageFix" result="effect1_dropShadow"/>
<feBlend mode="normal" in="SourceGraphic" in2="effect1_dropShadow" result="shape"/>
</filter>
</defs>
</svg>
