<svg width="34" height="29" viewBox="0 0 34 29" fill="none" xmlns="http://www.w3.org/2000/svg">
<g filter="url(#filter0_d)">
<path fill-rule="evenodd" clip-rule="evenodd" d="M5 6.5C5 5.70435 5.31607 4.94129 5.87868 4.37868C6.44129 3.81607 7.20435 3.5 8 3.5H26C26.7956 3.5 27.5587 3.81607 28.1213 4.37868C28.6839 4.94129 29 5.70435 29 6.5V14H5V6.5ZM22.25 8C22.0511 8 21.8603 8.07902 21.7197 8.21967C21.579 8.36032 21.5 8.55109 21.5 8.75V10.25C21.5 10.4489 21.579 10.6397 21.7197 10.7803C21.8603 10.921 22.0511 11 22.25 11H25.25C25.4489 11 25.6397 10.921 25.7803 10.7803C25.921 10.6397 26 10.4489 26 10.25V8.75C26 8.55109 25.921 8.36032 25.7803 8.21967C25.6397 8.07902 25.4489 8 25.25 8H22.25Z" fill="#EC336B"/>
<path d="M5 17V18.5C5 19.2956 5.31607 20.0587 5.87868 20.6213C6.44129 21.1839 7.20435 21.5 8 21.5H26C26.7956 21.5 27.5587 21.1839 28.1213 20.6213C28.6839 20.0587 29 19.2956 29 18.5V17H5Z" fill="#EC336B"/>
</g>
<defs>
<filter id="filter0_d" x="0" y="-2.5" width="34" height="34" filterUnits="userSpaceOnUse" color-interpolation-filters="sRGB">
<feFlood flood-opacity="0" result="BackgroundImageFix"/>
<feColorMatrix in="SourceAlpha" type="matrix" values="0 0 0 0 0 0 0 0 0 0 0 0 0 0 0 0 0 0 127 0"/>
<feOffset dy="2"/>
<feGaussianBlur stdDeviation="2.5"/>
<feColorMatrix type="matrix" values="0 0 0 0 0.92549 0 0 0 0 0.2 0 0 0 0 0.419608 0 0 0 0.75 0"/>
<feBlend mode="normal" in2="BackgroundImageFix" result="effect1_dropShadow"/>
<feBlend mode="normal" in="SourceGraphic" in2="effect1_dropShadow" result="shape"/>
</filter>
</defs>
</svg>
