<svg width="26" height="26" viewBox="0 0 26 26" fill="none" xmlns="http://www.w3.org/2000/svg">
<path d="M5.40913 14.066C5.1738 14.0657 4.9448 14.1421 4.75675 14.2836C4.56869 14.4251 4.43183 14.624 4.36684 14.8501C4.30185 15.0763 4.31227 15.3175 4.39654 15.5372C4.4808 15.7569 4.63432 15.9433 4.83388 16.068L7.74588 18.98C7.84653 19.0806 7.96601 19.1603 8.09749 19.2147C8.22897 19.2691 8.36988 19.2971 8.51218 19.2971C8.65447 19.297 8.79536 19.2689 8.92681 19.2144C9.05825 19.1599 9.17767 19.0801 9.27825 18.9794C9.37884 18.8788 9.45861 18.7593 9.51301 18.6278C9.56742 18.4963 9.5954 18.3554 9.59535 18.2131C9.5953 18.0708 9.56722 17.93 9.51272 17.7985C9.45822 17.6671 9.37837 17.5476 9.27771 17.4471L8.0633 16.2337H16.2425C16.5298 16.2337 16.8053 16.1196 17.0085 15.9164C17.2117 15.7133 17.3258 15.4377 17.3258 15.1504C17.3258 14.8631 17.2117 14.5875 17.0085 14.3844C16.8053 14.1812 16.5298 14.0671 16.2425 14.0671H5.40913V14.066Z" fill="#EC336B"/>
<path d="M20.591 11.934C20.8263 11.9342 21.0553 11.8578 21.2434 11.7163C21.4314 11.5749 21.5683 11.376 21.6333 11.1498C21.6983 10.9236 21.6878 10.6825 21.6036 10.4627C21.5193 10.243 21.3658 10.0567 21.1662 9.93198L18.2542 7.01998C18.051 6.81684 17.7753 6.70278 17.4879 6.70288C17.2006 6.70298 16.925 6.81724 16.7219 7.02052C16.5187 7.22379 16.4047 7.49944 16.4048 7.78682C16.4049 8.07419 16.5191 8.34976 16.7224 8.55289L17.9368 9.76623H9.75765C9.47033 9.76623 9.19478 9.88036 8.99162 10.0835C8.78845 10.2867 8.67432 10.5622 8.67432 10.8496C8.67432 11.1369 8.78845 11.4124 8.99162 11.6156C9.19478 11.8188 9.47033 11.9329 9.75765 11.9329H20.591V11.934Z" fill="#EC336B"/>
</svg>
