<svg width="32" height="34" viewBox="0 0 32 34" fill="none" xmlns="http://www.w3.org/2000/svg">
<g filter="url(#filter0_d)">
<path d="M23 11.25C22.2583 11.25 21.5333 11.0301 20.9166 10.618C20.2999 10.206 19.8193 9.62029 19.5355 8.93506C19.2516 8.24984 19.1774 7.49584 19.3221 6.76841C19.4668 6.04098 19.8239 5.3728 20.3484 4.84835C20.8728 4.3239 21.541 3.96675 22.2684 3.82206C22.9958 3.67736 23.7498 3.75162 24.4351 4.03545C25.1203 4.31928 25.706 4.79993 26.118 5.41661C26.5301 6.0333 26.75 6.75832 26.75 7.5C26.7488 8.49418 26.3533 9.44729 25.6503 10.1503C24.9473 10.8533 23.9942 11.2488 23 11.25ZM23 5.625C22.6292 5.625 22.2666 5.73497 21.9583 5.941C21.65 6.14702 21.4096 6.43986 21.2677 6.78247C21.1258 7.12508 21.0887 7.50208 21.161 7.8658C21.2334 8.22951 21.412 8.5636 21.6742 8.82583C21.9364 9.08805 22.2705 9.26663 22.6342 9.33897C22.9979 9.41132 23.3749 9.37419 23.7175 9.23228C24.0601 9.09036 24.353 8.85004 24.559 8.5417C24.765 8.23335 24.875 7.87084 24.875 7.5C24.8745 7.00287 24.6768 6.52625 24.3253 6.17472C23.9738 5.8232 23.4971 5.6255 23 5.625Z" fill="#EC336B"/>
<path d="M24.875 20.625H20.9816L20.3563 16.875H23V15H8V16.875H10.6437L10.0184 20.625H6.125V22.5H9.70625L9.08094 26.25H10.9813L11.6066 22.5H19.3925L20.0178 26.25H21.9191L21.2938 22.5H24.875V20.625ZM11.9188 20.625L12.5431 16.875H18.4559L19.0803 20.625H11.9188Z" fill="#EC336B"/>
</g>
<defs>
<filter id="filter0_d" x="-4.5" y="-3" width="40" height="40" filterUnits="userSpaceOnUse" color-interpolation-filters="sRGB">
<feFlood flood-opacity="0" result="BackgroundImageFix"/>
<feColorMatrix in="SourceAlpha" type="matrix" values="0 0 0 0 0 0 0 0 0 0 0 0 0 0 0 0 0 0 127 0"/>
<feOffset dy="2"/>
<feGaussianBlur stdDeviation="2.5"/>
<feColorMatrix type="matrix" values="0 0 0 0 0.92549 0 0 0 0 0.2 0 0 0 0 0.419608 0 0 0 0.75 0"/>
<feBlend mode="normal" in2="BackgroundImageFix" result="effect1_dropShadow"/>
<feBlend mode="normal" in="SourceGraphic" in2="effect1_dropShadow" result="shape"/>
</filter>
</defs>
</svg>
